# xmcd
#
# Track frame offsets: 
#        150
#        11919
#        23808
#        35568
#        47095
#        58093
#        68448
#        80250
#        90658
#        100941
#        114184
#        126802
#        138648
#        152250
#        163627
#        171780
#
# Disc length: 2426 seconds
#
# Revision: 0
# Processed by: cddbd v1.5.2PL0 Copyright (c) Steve Scherf et al.
# Submitted via: ExactAudioCopy v1.0b4
#
DISCID=c4097810
DTITLE=Lowell Fulson - The Blues Got Me Down (LP)
DYEAR=1985
DGENRE=Bluegrass
TTITLE0=Street Walking Woman
TTITLE1=I Want To See My baby
TTITLE2=The Blues Got My Down
TTITLE3=I' m A Night Owl Pt 1
TTITLE4=The Highway Is My Home
TTITLE5=Chuck With The Boys
TTITLE6=Be On Your Merry Way
TTITLE7=Stop And Think
TTITLE8=You' re Gonna Miss Me
TTITLE9=Mean Woman Blues
TTITLE10=Blue Shadows
TTITLE11=I ' m A Night Owl Pt 2
TTITLE12=Don' t Leave Me Baby
TTITLE13=Smokey Room
TTITLE14=Can She Do It
TTITLE15=Baby
EXTD=
EXTT0=
EXTT1=
EXTT2=
EXTT3=
EXTT4=
EXTT5=
EXTT6=
EXTT7=
EXTT8=
EXTT9=
EXTT10=
EXTT11=
EXTT12=
EXTT13=
EXTT14=
EXTT15=
PLAYORDER=
